<svg width="182" height="48" viewBox="0 0 182 48" fill="none" xmlns="http://www.w3.org/2000/svg">
<g clip-path="url(#clip0_1_168)">
<path d="M27.2694 4.10075L23.0486 2.97552L19.4917 16.1827L16.2804 4.25918L12.0595 5.3844L15.5291 18.2669L6.88724 9.66902L3.79738 12.7432L13.2764 22.1741L1.47179 19.0271L0.34082 23.2265L13.2388 26.6649C13.0912 26.0313 13.0131 25.371 13.0131 24.6926C13.0131 19.8904 16.9258 15.9975 21.7525 15.9975C26.5792 15.9975 30.492 19.8904 30.492 24.6926C30.492 25.3666 30.4148 26.0228 30.269 26.6528L41.9909 29.7777L43.1218 25.5783L30.1725 22.1262L41.9779 18.979L40.8469 14.7796L27.8981 18.2316L36.54 9.63373L33.4501 6.55956L24.1026 15.8596L27.2694 4.10075Z" fill="#FF4405"/>
<path d="M30.2567 26.7017C29.8948 28.2238 29.1308 29.5912 28.0825 30.6868L36.5745 39.1358L39.6644 36.0616L30.2567 26.7017Z" fill="#FF4405"/>
<path d="M27.9968 30.7752C26.9359 31.8532 25.5951 32.6578 24.0916 33.0723L27.1817 44.546L31.4025 43.4208L27.9968 30.7752Z" fill="#FF4405"/>
<path d="M23.934 33.1143C23.2364 33.2927 22.5053 33.3876 21.7518 33.3876C20.9446 33.3876 20.1629 33.2787 19.4208 33.0748L16.3279 44.559L20.5487 45.6841L23.934 33.1143Z" fill="#FF4405"/>
<path d="M19.2715 33.0325C17.791 32.5973 16.4741 31.7825 15.4348 30.7013L6.92192 39.171L10.0118 42.2452L19.2715 33.0325Z" fill="#FF4405"/>
<path d="M15.3647 30.6265C14.3432 29.5385 13.5992 28.1893 13.2451 26.6907L1.48486 29.8258L2.61582 34.0251L15.3647 30.6265Z" fill="#FF4405"/>
</g>
<path d="M68.52 12.8436V27.9763L58.77 12.8436H54.87V33.7369H58.77V18.7236L68.52 33.7369H72.42V12.8436H68.52Z" fill="white"/>
<path d="M74.1773 16.7536H78.1973V12.8436H74.1773V16.7536ZM74.2373 33.7369V18.8131H78.1373V33.7369H74.2373Z" fill="white"/>
<path d="M94.9174 26.275C94.9174 21.1114 91.2274 18.6639 87.3274 18.634C83.3974 18.6042 79.7674 21.1114 79.7674 26.275C79.7674 31.4386 83.3974 33.9458 87.3274 33.916C90.8974 33.8861 93.3574 32.2445 94.4974 29.5284L91.4674 28.2748C90.5374 30.1253 89.0674 30.782 87.3274 30.8118C85.8274 30.8417 84.1174 30.1253 83.7574 27.4689H94.8274C94.8874 27.0809 94.9174 26.6929 94.9174 26.275ZM87.3274 21.7083C88.8274 21.7382 90.3574 22.5441 90.8374 24.6931H83.8174C84.3274 22.5142 85.8574 21.6785 87.3274 21.7083Z" fill="white"/>
<path d="M103.931 21.5889V18.634H101.471V14.6345L97.5705 15.8284V18.634H95.1105V21.5889H97.5705V29.3195C97.5705 32.2445 97.8106 33.7369 102.371 33.7369H103.421V30.3343H102.371C101.651 30.3343 101.471 30.2149 101.471 29.3195V21.5889H103.931Z" fill="white"/>
<path d="M109.726 30.4835L118.006 22.0665V18.8131H105.586V22.0665H113.626L105.346 30.4835V33.7369H118.096V30.4835H109.726Z" fill="white"/>
<path d="M119.494 29.5284L123.424 28.9314C123.694 30.4238 125.464 30.9909 126.544 30.9909C127.654 30.9909 129.574 30.7521 129.574 28.9613C129.574 25.4691 119.944 29.8269 119.944 23.141C119.944 18.843 124.954 18.6042 126.544 18.6042C128.044 18.6042 132.394 18.843 133.294 22.3053L129.574 23.0813C129.244 21.4994 127.564 21.2009 126.664 21.2009C125.764 21.2009 123.844 21.4098 123.844 23.141C123.844 26.6033 133.474 22.1859 133.474 28.9613C133.474 33.528 128.194 33.916 126.544 33.916C125.044 33.916 120.274 33.528 119.494 29.5284Z" fill="white"/>
<path d="M138.54 26.275C138.54 29.9164 140.49 31.0208 142.53 30.9909C144.36 30.9611 145.62 30.2149 146.37 28.1256L149.58 29.6776C148.41 32.7221 145.56 33.8861 142.53 33.916C138.6 33.9458 134.64 31.4386 134.64 26.275C134.64 21.1114 138.6 18.6042 142.53 18.634C145.56 18.6639 148.41 19.8279 149.58 22.8724L146.37 24.4245C145.62 22.3351 144.36 21.5889 142.53 21.5591C140.49 21.5292 138.54 22.6336 138.54 26.275Z" fill="white"/>
<path d="M160.05 18.5743C158.04 18.5743 156.21 19.619 155.04 21.8576V12.8436H151.14V33.7369H155.04V28.4539C155.04 21.6188 157.89 21.0517 158.94 21.0517C160.62 21.0517 160.86 22.7828 160.86 25.3199V33.7369H164.76V25.3199C164.76 22.156 164.25 18.5743 160.05 18.5743Z" fill="white"/>
<path d="M181.226 26.275C181.226 21.1114 177.536 18.6639 173.636 18.634C169.706 18.6042 166.076 21.1114 166.076 26.275C166.076 31.4386 169.706 33.9458 173.636 33.916C177.206 33.8861 179.666 32.2445 180.806 29.5284L177.776 28.2748C176.846 30.1253 175.376 30.782 173.636 30.8118C172.136 30.8417 170.426 30.1253 170.066 27.4689H181.136C181.196 27.0809 181.226 26.6929 181.226 26.275ZM173.636 21.7083C175.136 21.7382 176.666 22.5441 177.146 24.6931H170.126C170.636 22.5142 172.166 21.6785 173.636 21.7083Z" fill="white"/>
<defs>
<clipPath id="clip0_1_168">
<rect width="44" height="43.7764" fill="white" transform="translate(0 1.98984)"/>
</clipPath>
</defs>
</svg>
